HIERARCHY
ROOT root
{
	OFFSET 0.000000 0.000000 0.000000
	CHANNELS 6 Xposition Yposition Zposition Zrotation Yrotation Xrotation
	JOINT lhip
	{
		OFFSET 0.058581 -0.082280 -0.017664
		CHANNELS 3 Zrotation Yrotation Xrotation
		JOINT lknee
		{
			OFFSET 0.043451 -0.386469 0.008037
			CHANNELS 3 Zrotation Yrotation Xrotation
			JOINT lankle
			{
				OFFSET -0.014790 -0.426874 -0.037428
				CHANNELS 3 Zrotation Yrotation Xrotation
				JOINT ltoe
				{
					OFFSET 0.041054 -0.060286 0.122042
					CHANNELS 3 Zrotation Yrotation Xrotation
					End Site
					{
						OFFSET 0.000000 0.000000 0.000000
					}
				}
			}
		}
	}
	JOINT rhip
	{
		OFFSET -0.060310 -0.090513 -0.013543
		CHANNELS 3 Zrotation Yrotation Xrotation
		JOINT rknee
		{
			OFFSET -0.043257 -0.383688 -0.004843
			CHANNELS 3 Zrotation Yrotation Xrotation
			JOINT rankle
			{
				OFFSET 0.019056 -0.420046 -0.034562
				CHANNELS 3 Zrotation Yrotation Xrotation
				JOINT rtoe
				{
					OFFSET -0.034840 -0.062106 0.130323
					CHANNELS 3 Zrotation Yrotation Xrotation
					End Site
					{
						OFFSET 0.000000 0.000000 0.000000
					}
				}
			}
		}
	}
	JOINT lowerback
	{
		OFFSET 0.004439 0.124404 -0.038385
		CHANNELS 3 Zrotation Yrotation Xrotation
		JOINT upperback
		{
			OFFSET 0.004488 0.137956 0.026820
			CHANNELS 3 Zrotation Yrotation Xrotation
			JOINT chest
			{
				OFFSET -0.002265 0.056032 0.002855
				CHANNELS 3 Zrotation Yrotation Xrotation
				JOINT lowerneck
				{
					OFFSET -0.013390 0.211636 -0.033468
					CHANNELS 3 Zrotation Yrotation Xrotation
					JOINT upperneck
					{
						OFFSET 0.010113 0.088937 0.050410
						CHANNELS 3 Zrotation Yrotation Xrotation
						End Site
						{
							OFFSET 0.000000 0.000000 0.000000
						}
					}
				}
				JOINT lclavicle
				{
					OFFSET 0.071702 0.114000 -0.018898
					CHANNELS 3 Zrotation Yrotation Xrotation
					JOINT lshoulder
					{
						OFFSET 0.122921 0.045205 -0.019046
						CHANNELS 3 Zrotation Yrotation Xrotation
						JOINT lelbow
						{
							OFFSET 0.255332 -0.015649 -0.022946
							CHANNELS 3 Zrotation Yrotation Xrotation
							JOINT lwrist
							{
								OFFSET 0.265709 0.012698 -0.007375
								CHANNELS 3 Zrotation Yrotation Xrotation
								End Site
								{
									OFFSET 0.000000 0.000000 0.000000
								}
							}
						}
					}
				}
				JOINT rclavicle
				{
					OFFSET -0.082954 0.112472 -0.023707
					CHANNELS 3 Zrotation Yrotation Xrotation
					JOINT rshoulder
					{
						OFFSET -0.113228 0.046853 -0.008472
						CHANNELS 3 Zrotation Yrotation Xrotation
						JOINT relbow
						{
							OFFSET -0.260127 -0.014369 -0.031269
							CHANNELS 3 Zrotation Yrotation Xrotation
							JOINT rwrist
							{
								OFFSET -0.269108 0.006794 -0.006027
								CHANNELS 3 Zrotation Yrotation Xrotation
								End Site
								{
									OFFSET 0.000000 0.000000 0.000000
								}
							}
						}
					}
				}
			}
		}
	}
}
MOTION
Frames: 5
Frame Time: 0.033333
0.229306 0.413847 0.971463 9.028406 1.338551 82.278970 1.606774 0.492255 25.998493 -7.162744 -30.324428 16.190293 -0.519032 7.363090 -21.498649 0.000000 -0.000000 0.000000 -5.304176 0.349354 -36.585778 3.270899 -12.267300 45.168344 10.020309 -12.595791 19.085068 0.000000 -0.000000 0.000000 -2.728806 -12.787736 13.335049 5.274382 -6.054552 0.403939 2.807667 -7.851291 0.365242 -1.082166 5.760658 -10.923285 0.980059 5.397998 -4.133698 -18.570702 -6.330342 3.887108 -47.012792 -20.659430 13.400855 9.818298 -64.723228 5.946105 3.191240 -14.047800 -16.724974 21.499523 -7.613374 -0.608517 53.073939 -17.026010 13.925271 -13.207808 42.873904 -3.157457 11.086509 8.470813 -12.012671 
0.222766 0.369141 0.961791 8.082040 0.296974 83.790674 0.958697 0.983703 21.670943 -9.964438 -26.691957 25.303628 -4.429483 4.647437 -16.544872 0.000000 -0.000000 0.000000 -2.693616 0.503699 -29.035645 3.151765 -9.503479 39.107696 6.768603 -8.176918 0.487573 0.000000 -0.000000 0.000000 -2.846587 -9.717519 10.626449 5.530110 -6.178189 0.669164 2.418590 -7.236288 0.029721 -0.619080 7.585794 -10.490563 -0.638467 3.060138 -3.854737 -19.751091 -4.478313 4.159305 -48.362921 -16.437257 14.666094 0.221217 -63.560812 16.929408 2.505010 -14.445528 -15.820220 23.331392 -7.395345 -0.205155 53.708737 -14.102232 14.541554 -14.316697 49.664140 -2.034797 8.821183 9.514515 -16.268289 
0.216833 0.328926 0.957881 5.034451 0.357677 83.857368 0.288841 0.255437 13.955381 -13.408301 -19.020013 39.946624 -6.971199 2.316747 -5.344483 0.000000 -0.000000 0.000000 0.243422 2.398042 -24.217854 1.968231 -8.549796 35.474201 1.477560 -7.674984 -6.818744 0.000000 -0.000000 0.000000 -1.715363 -6.591799 10.752842 5.739335 -5.069641 0.614095 1.865300 -5.763696 -0.650925 -1.082677 8.265366 -10.907793 -1.826781 2.244818 -3.463278 -21.449267 -2.667978 3.707411 -48.492826 -10.967619 15.544305 -6.829463 -60.452069 24.718804 0.363165 -14.863785 -13.081883 25.061899 -5.771064 -0.603436 53.603509 -9.711901 16.506311 -16.520205 58.670093 -1.451136 7.472800 10.758830 -18.279917 
0.211135 0.294230 0.958560 1.239810 0.768239 82.719120 0.062251 -1.353620 3.495400 -15.058367 -8.977182 58.185265 -4.675249 2.303098 0.702559 0.000000 -0.000000 0.000000 3.183930 4.407096 -20.446102 1.166271 -6.107706 35.128749 -1.310180 -7.930127 -9.683448 0.000000 -0.000000 0.000000 -0.606051 -3.636192 12.109955 5.933345 -3.769276 0.914281 1.250887 -4.114316 -0.303399 -1.232717 8.595391 -11.984128 -3.318541 2.546679 -3.257059 -22.600887 -1.282706 3.219646 -47.831544 -5.309304 14.559209 -10.289351 -56.072736 29.045469 -1.962415 -14.702876 -9.280242 26.294409 -2.175143 -1.410466 52.879197 -2.243144 18.780202 -20.523320 68.741848 -2.717033 6.800350 11.807316 -18.826921 
0.206459 0.262476 0.963211 -1.279283 0.261869 80.565512 0.388408 -3.592551 -7.799400 -13.957630 0.882817 76.006426 -2.388864 2.764358 -3.640095 0.000000 -0.000000 0.000000 4.696769 4.584825 -15.038917 0.615443 -3.565518 33.912872 -2.206896 -7.954639 -11.751236 0.000000 -0.000000 0.000000 -0.643801 -0.161438 14.313776 5.787621 -3.371592 1.104278 0.855739 -3.033816 0.447165 -0.057409 9.088168 -12.401950 -4.694801 2.401273 -2.586983 -22.879118 -0.528723 2.695863 -46.942921 0.128594 12.980004 -11.197296 -50.885481 29.829240 -3.886388 -14.615832 -6.985481 26.476843 2.397823 -3.291802 52.216857 7.117488 20.812732 -28.704041 76.828851 -9.941088 5.691736 12.483389 -20.426263 
